<?xml version="1.0" encoding="UTF-8" standalone="no"?>
<svg width="68px" height="112px" viewBox="0 0 68 112" version="1.1" xmlns="http://www.w3.org/2000/svg" xmlns:xlink="http://www.w3.org/1999/xlink">
    <!-- Generator: Sketch 42 (36781) - http://www.bohemiancoding.com/sketch -->
    <title>Page 1</title>
    <desc>Created with Sketch.</desc>
    <defs></defs>
    <g id="d03.Set-caller-experience" stroke="none" stroke-width="1" fill="none" fill-rule="evenodd">
        <g id="Message-being-recorded" transform="translate(-686.000000, -241.000000)" fill="#E20074">
            <g id="Hold-and-talk-active" transform="translate(620.000000, 199.000000)">
                <path d="M99.906,42 C110.702,42 119.906,51.212 119.908,62 L119.908,106 C119.906,116.792 110.7,126 99.906,126 C89.114,126 79.906,116.792 79.908,106 L79.908,62 C79.906,51.212 89.122,42 99.906,42 M99.906,48 C92.448,48 85.906,54.542 85.908,62 L85.908,106 C85.906,113.458 92.448,120 99.906,120 C107.364,120 113.906,113.458 113.908,106 L113.908,62 C113.906,54.542 107.364,48 99.906,48 M133.814,101 C133.814,102.658 132.466,104 130.81,104 L129.938,104 L129.938,106.06 C129.938,121.266 118.61,133.8 103.938,135.762 L103.938,144.006 L119.938,144.006 C122.134,144.006 123.938,145.804 123.938,148.006 L123.938,149.94 L123.938,154 L75.938,154 L75.938,149.94 L75.938,148.006 C75.938,145.804 77.742,144.006 79.938,144.006 L95.938,144.006 L95.938,135.762 C81.266,133.8 69.938,121.266 69.938,106.06 L69.938,103.996 L69,104 C67.344,104 66,102.658 66,101 C66,99.336 67.344,98 69,98 L75.938,98 L75.938,106.06 C75.938,119.292 86.704,130.058 99.938,130.058 C113.172,130.058 123.938,119.292 123.938,106.06 L123.938,98 L130.81,98 C132.466,98 133.814,99.336 133.814,101" id="Page-1"></path>
            </g>
        </g>
    </g>
</svg>